<mxfile host="app.diagrams.net" agent="Mozilla/5.0 (Windows NT 10.0; Win64; x64) AppleWebKit/537.36 (KHTML, like Gecko) Chrome/135.0.0.0 Safari/537.36" version="26.2.13">
  <diagram name="Page-1" id="bHuXXWiObIEjzxaT6tA9">
    <mxGraphModel dx="1832" dy="1733" grid="1" gridSize="10" guides="1" tooltips="1" connect="1" arrows="1" fold="1" page="1" pageScale="1" pageWidth="827" pageHeight="1169" math="0" shadow="0">
      <root>
        <mxCell id="0" />
        <mxCell id="1" parent="0" />
        <mxCell id="opVOt1zeVBerey2qtE9r-1" value="VESCInterface" style="rounded=0;whiteSpace=wrap;html=1;" vertex="1" parent="1">
          <mxGeometry x="290" y="50" width="120" height="60" as="geometry" />
        </mxCell>
        <mxCell id="opVOt1zeVBerey2qtE9r-2" value="MotorController" style="rounded=0;whiteSpace=wrap;html=1;" vertex="1" parent="1">
          <mxGeometry x="100" y="50" width="120" height="60" as="geometry" />
        </mxCell>
        <mxCell id="opVOt1zeVBerey2qtE9r-3" value="ScreenDisplay" style="rounded=0;whiteSpace=wrap;html=1;" vertex="1" parent="1">
          <mxGeometry x="100" y="280" width="120" height="60" as="geometry" />
        </mxCell>
        <mxCell id="opVOt1zeVBerey2qtE9r-4" value="VESC" style="ellipse;whiteSpace=wrap;html=1;" vertex="1" parent="1">
          <mxGeometry x="490" y="40" width="120" height="80" as="geometry" />
        </mxCell>
        <mxCell id="opVOt1zeVBerey2qtE9r-5" value="Moteur" style="ellipse;whiteSpace=wrap;html=1;" vertex="1" parent="1">
          <mxGeometry x="660" y="40" width="120" height="80" as="geometry" />
        </mxCell>
        <mxCell id="opVOt1zeVBerey2qtE9r-34" value="" style="edgeStyle=orthogonalEdgeStyle;rounded=0;orthogonalLoop=1;jettySize=auto;html=1;" edge="1" parent="1" source="opVOt1zeVBerey2qtE9r-6" target="opVOt1zeVBerey2qtE9r-4">
          <mxGeometry relative="1" as="geometry" />
        </mxCell>
        <mxCell id="opVOt1zeVBerey2qtE9r-6" value="Screen" style="ellipse;whiteSpace=wrap;html=1;" vertex="1" parent="1">
          <mxGeometry x="490" y="260" width="120" height="80" as="geometry" />
        </mxCell>
        <mxCell id="opVOt1zeVBerey2qtE9r-11" value="" style="endArrow=classic;html=1;rounded=0;entryX=1;entryY=0.75;entryDx=0;entryDy=0;fillColor=#dae8fc;strokeColor=#6CB5FF;" edge="1" parent="1" target="opVOt1zeVBerey2qtE9r-1">
          <mxGeometry width="50" height="50" relative="1" as="geometry">
            <mxPoint x="493" y="95" as="sourcePoint" />
            <mxPoint x="430" y="150" as="targetPoint" />
          </mxGeometry>
        </mxCell>
        <mxCell id="opVOt1zeVBerey2qtE9r-12" value="" style="endArrow=classic;html=1;rounded=0;exitX=1;exitY=0.25;exitDx=0;exitDy=0;entryX=0.044;entryY=0.317;entryDx=0;entryDy=0;entryPerimeter=0;" edge="1" parent="1" source="opVOt1zeVBerey2qtE9r-1" target="opVOt1zeVBerey2qtE9r-4">
          <mxGeometry width="50" height="50" relative="1" as="geometry">
            <mxPoint x="380" y="200" as="sourcePoint" />
            <mxPoint x="430" y="150" as="targetPoint" />
          </mxGeometry>
        </mxCell>
        <mxCell id="opVOt1zeVBerey2qtE9r-13" value="&lt;ul&gt;&lt;li&gt;SetCurrent&lt;/li&gt;&lt;li&gt;SetRPM&lt;/li&gt;&lt;/ul&gt;" style="text;html=1;align=center;verticalAlign=middle;resizable=0;points=[];autosize=1;strokeColor=none;fillColor=none;" vertex="1" parent="1">
          <mxGeometry x="380" y="10" width="120" height="70" as="geometry" />
        </mxCell>
        <mxCell id="opVOt1zeVBerey2qtE9r-14" value="&lt;ul&gt;&lt;li&gt;&lt;font style=&quot;color: light-dark(rgb(30, 194, 235), rgb(237, 237, 237));&quot;&gt;GetCurrent&lt;/font&gt;&lt;/li&gt;&lt;li&gt;&lt;font style=&quot;color: light-dark(rgb(30, 194, 235), rgb(237, 237, 237));&quot;&gt;GetRPM&lt;/font&gt;&lt;/li&gt;&lt;li&gt;&lt;font color=&quot;#1ec2eb&quot;&gt;GetDutyCycle&lt;/font&gt;&lt;/li&gt;&lt;/ul&gt;" style="text;html=1;align=center;verticalAlign=middle;resizable=0;points=[];autosize=1;strokeColor=none;fillColor=none;" vertex="1" parent="1">
          <mxGeometry x="370" y="80" width="140" height="80" as="geometry" />
        </mxCell>
        <mxCell id="opVOt1zeVBerey2qtE9r-15" value="" style="endArrow=classic;html=1;rounded=0;exitX=1;exitY=0.25;exitDx=0;exitDy=0;entryX=0;entryY=0.25;entryDx=0;entryDy=0;" edge="1" parent="1" source="opVOt1zeVBerey2qtE9r-2" target="opVOt1zeVBerey2qtE9r-1">
          <mxGeometry width="50" height="50" relative="1" as="geometry">
            <mxPoint x="380" y="200" as="sourcePoint" />
            <mxPoint x="430" y="150" as="targetPoint" />
          </mxGeometry>
        </mxCell>
        <mxCell id="opVOt1zeVBerey2qtE9r-16" value="" style="endArrow=classic;html=1;rounded=0;fillColor=#dae8fc;strokeColor=#6c8ebf;entryX=1;entryY=0.75;entryDx=0;entryDy=0;exitX=0;exitY=0.75;exitDx=0;exitDy=0;" edge="1" parent="1" source="opVOt1zeVBerey2qtE9r-1" target="opVOt1zeVBerey2qtE9r-2">
          <mxGeometry width="50" height="50" relative="1" as="geometry">
            <mxPoint x="380" y="200" as="sourcePoint" />
            <mxPoint x="430" y="150" as="targetPoint" />
          </mxGeometry>
        </mxCell>
        <mxCell id="opVOt1zeVBerey2qtE9r-18" value="&lt;ul&gt;&lt;li&gt;stop (SetCurrent)&lt;/li&gt;&lt;li&gt;setTorque (SetCurrent)&lt;/li&gt;&lt;li&gt;setCadence (SetRPM)&lt;/li&gt;&lt;li&gt;setPower (SetCurrent)&lt;/li&gt;&lt;li&gt;setLinear(SetCurrent) update&lt;/li&gt;&lt;/ul&gt;" style="text;html=1;align=center;verticalAlign=middle;resizable=0;points=[];autosize=1;strokeColor=none;fillColor=none;" vertex="1" parent="1">
          <mxGeometry x="130" y="-50" width="220" height="110" as="geometry" />
        </mxCell>
        <mxCell id="opVOt1zeVBerey2qtE9r-22" value="&lt;ul&gt;&lt;li&gt;&lt;font color=&quot;#6cb5ff&quot;&gt;getCadence(GetRPM)&lt;/font&gt;&lt;/li&gt;&lt;li&gt;&lt;font color=&quot;#6cb5ff&quot;&gt;getTorque(GetCurrent&lt;/font&gt;&lt;/li&gt;&lt;li&gt;&lt;font color=&quot;#6cb5ff&quot;&gt;getDutyCycle(GetDutyCycle)&lt;/font&gt;&lt;/li&gt;&lt;li&gt;&lt;font color=&quot;#6cb5ff&quot;&gt;getPower(getTorque et getCadence)&lt;/font&gt;&lt;/li&gt;&lt;/ul&gt;" style="text;html=1;align=center;verticalAlign=middle;resizable=0;points=[];autosize=1;strokeColor=none;fillColor=none;" vertex="1" parent="1">
          <mxGeometry x="120" y="90" width="260" height="100" as="geometry" />
        </mxCell>
        <mxCell id="opVOt1zeVBerey2qtE9r-23" value="" style="endArrow=classic;startArrow=classic;html=1;rounded=0;exitX=1;exitY=0.5;exitDx=0;exitDy=0;entryX=0;entryY=0.5;entryDx=0;entryDy=0;" edge="1" parent="1" source="opVOt1zeVBerey2qtE9r-4" target="opVOt1zeVBerey2qtE9r-5">
          <mxGeometry width="50" height="50" relative="1" as="geometry">
            <mxPoint x="400" y="110" as="sourcePoint" />
            <mxPoint x="450" y="60" as="targetPoint" />
          </mxGeometry>
        </mxCell>
        <mxCell id="opVOt1zeVBerey2qtE9r-24" value="" style="endArrow=classic;html=1;rounded=0;exitX=1;exitY=0.25;exitDx=0;exitDy=0;entryX=0;entryY=0.5;entryDx=0;entryDy=0;" edge="1" parent="1" source="opVOt1zeVBerey2qtE9r-3" target="opVOt1zeVBerey2qtE9r-6">
          <mxGeometry width="50" height="50" relative="1" as="geometry">
            <mxPoint x="220" y="270" as="sourcePoint" />
            <mxPoint x="500.0000000000032" y="275" as="targetPoint" />
          </mxGeometry>
        </mxCell>
        <mxCell id="opVOt1zeVBerey2qtE9r-25" value="" style="endArrow=classic;startArrow=classic;html=1;rounded=0;exitX=0.25;exitY=0;exitDx=0;exitDy=0;entryX=0.25;entryY=1;entryDx=0;entryDy=0;" edge="1" parent="1" source="opVOt1zeVBerey2qtE9r-3" target="opVOt1zeVBerey2qtE9r-2">
          <mxGeometry width="50" height="50" relative="1" as="geometry">
            <mxPoint x="400" y="110" as="sourcePoint" />
            <mxPoint x="450" y="60" as="targetPoint" />
          </mxGeometry>
        </mxCell>
        <mxCell id="opVOt1zeVBerey2qtE9r-30" value="&lt;ul style=&quot;text-wrap-mode: nowrap;&quot;&gt;&lt;li&gt;ShowCadence(getCadence)&lt;/li&gt;&lt;li&gt;showTorque(getTorque)&lt;/li&gt;&lt;li&gt;showPower(getPower)&lt;/li&gt;&lt;li&gt;showDutyCycle(getDutyCycle)&lt;/li&gt;&lt;li&gt;showMode(getControlMode)&lt;/li&gt;&lt;/ul&gt;" style="rounded=1;whiteSpace=wrap;html=1;" vertex="1" parent="1">
          <mxGeometry x="232.5" y="200" width="245" height="80" as="geometry" />
        </mxCell>
        <mxCell id="opVOt1zeVBerey2qtE9r-31" value="&lt;ul style=&quot;text-wrap-mode: nowrap;&quot;&gt;&lt;li&gt;&lt;font style=&quot;color: rgb(108, 181, 255);&quot;&gt;getUserCadence(setCadence)&lt;/font&gt;&lt;/li&gt;&lt;li&gt;&lt;font style=&quot;color: light-dark(rgb(108, 181, 255), rgb(237, 237, 237));&quot;&gt;getUserTorque(setTorque)&lt;/font&gt;&lt;/li&gt;&lt;li&gt;&lt;font style=&quot;color: light-dark(rgb(108, 181, 255), rgb(237, 237, 237));&quot;&gt;getUserPower(setPower)&lt;/font&gt;&lt;/li&gt;&lt;li&gt;&lt;font style=&quot;color: light-dark(rgb(108, 181, 255), rgb(237, 237, 237));&quot;&gt;getMode(setControlMode)&lt;/font&gt;&lt;/li&gt;&lt;li&gt;&lt;font style=&quot;color: light-dark(rgb(108, 181, 255), rgb(237, 237, 237));&quot;&gt;getUseLinearGain(setLinear)&lt;/font&gt;&lt;/li&gt;&lt;li&gt;&lt;font style=&quot;color: light-dark(rgb(108, 181, 255), rgb(237, 237, 237));&quot;&gt;getStop(Stop)&lt;/font&gt;&lt;/li&gt;&lt;li&gt;&lt;font style=&quot;color: light-dark(rgb(108, 181, 255), rgb(237, 237, 237));&quot;&gt;getDirection(setDirection)&lt;/font&gt;&lt;/li&gt;&lt;li&gt;&lt;font style=&quot;color: light-dark(rgb(108, 181, 255), rgb(237, 237, 237));&quot;&gt;gatCalibrateRequest(CalibrateTorqueConstant)&lt;/font&gt;&lt;/li&gt;&lt;/ul&gt;" style="rounded=1;whiteSpace=wrap;html=1;" vertex="1" parent="1">
          <mxGeometry x="210" y="360" width="290" height="160" as="geometry" />
        </mxCell>
        <mxCell id="opVOt1zeVBerey2qtE9r-32" value="" style="endArrow=classic;html=1;rounded=0;fillColor=#dae8fc;strokeColor=#6c8ebf;exitX=0;exitY=1;exitDx=0;exitDy=0;entryX=1;entryY=0.75;entryDx=0;entryDy=0;" edge="1" parent="1" source="opVOt1zeVBerey2qtE9r-6" target="opVOt1zeVBerey2qtE9r-3">
          <mxGeometry width="50" height="50" relative="1" as="geometry">
            <mxPoint x="400" y="280" as="sourcePoint" />
            <mxPoint x="450" y="230" as="targetPoint" />
          </mxGeometry>
        </mxCell>
        <mxCell id="opVOt1zeVBerey2qtE9r-33" value="&lt;div style=&quot;color: rgb(204, 204, 204); background-color: rgb(31, 31, 31); font-family: Consolas, &amp;quot;Courier New&amp;quot;, monospace; font-size: 14px; line-height: 19px; white-space-collapse: preserve;&quot;&gt;&lt;span style=&quot;color: #4ec9b0;&quot;&gt;MotorController&lt;/span&gt;::&lt;span style=&quot;color: #dcdcaa;&quot;&gt;updateFromScreen&lt;/span&gt;()&lt;/div&gt;" style="text;html=1;align=center;verticalAlign=middle;resizable=0;points=[];autosize=1;strokeColor=none;fillColor=none;" vertex="1" parent="1">
          <mxGeometry x="210" y="170" width="290" height="30" as="geometry" />
        </mxCell>
        <mxCell id="opVOt1zeVBerey2qtE9r-35" value="&lt;div style=&quot;color: #cccccc;background-color: #1f1f1f;font-family: Consolas, &#39;Courier New&#39;, monospace;font-weight: normal;font-size: 14px;line-height: 19px;white-space: pre;&quot;&gt;&lt;div&gt;&lt;span style=&quot;color: #4ec9b0;&quot;&gt;MotorController&lt;/span&gt;&lt;span style=&quot;color: #cccccc;&quot;&gt;::&lt;/span&gt;&lt;span style=&quot;color: #dcdcaa;&quot;&gt;updateScreen&lt;/span&gt;&lt;span style=&quot;color: #cccccc;&quot;&gt;()&lt;/span&gt;&lt;/div&gt;&lt;/div&gt;" style="text;whiteSpace=wrap;html=1;" vertex="1" parent="1">
          <mxGeometry x="240" y="330" width="270" height="40" as="geometry" />
        </mxCell>
        <mxCell id="opVOt1zeVBerey2qtE9r-37" style="edgeStyle=orthogonalEdgeStyle;rounded=0;orthogonalLoop=1;jettySize=auto;html=1;exitX=1;exitY=0.75;exitDx=0;exitDy=0;entryX=1;entryY=0.5;entryDx=0;entryDy=0;" edge="1" parent="1" source="opVOt1zeVBerey2qtE9r-30" target="opVOt1zeVBerey2qtE9r-30">
          <mxGeometry relative="1" as="geometry" />
        </mxCell>
        <mxCell id="opVOt1zeVBerey2qtE9r-38" value="MotorComputations" style="rounded=0;whiteSpace=wrap;html=1;" vertex="1" parent="1">
          <mxGeometry x="10" y="-60" width="120" height="60" as="geometry" />
        </mxCell>
        <mxCell id="opVOt1zeVBerey2qtE9r-39" value="" style="endArrow=classic;startArrow=classic;html=1;rounded=0;entryX=0.865;entryY=0.999;entryDx=0;entryDy=0;exitX=0.108;exitY=0.04;exitDx=0;exitDy=0;exitPerimeter=0;entryPerimeter=0;" edge="1" parent="1" source="opVOt1zeVBerey2qtE9r-2" target="opVOt1zeVBerey2qtE9r-38">
          <mxGeometry width="50" height="50" relative="1" as="geometry">
            <mxPoint x="45" y="90" as="sourcePoint" />
            <mxPoint x="95" y="40" as="targetPoint" />
          </mxGeometry>
        </mxCell>
        <mxCell id="opVOt1zeVBerey2qtE9r-40" value="Formules de conversion" style="text;html=1;align=center;verticalAlign=middle;resizable=0;points=[];autosize=1;strokeColor=none;fillColor=none;" vertex="1" parent="1">
          <mxGeometry x="-40" y="10" width="150" height="30" as="geometry" />
        </mxCell>
      </root>
    </mxGraphModel>
  </diagram>
</mxfile>
